<?xml version="1.0" encoding="UTF-8" standalone="no"?>
<svg width="212.372mm" height="247.297mm"
 viewBox="0 0 602 701"
 xmlns="http://www.w3.org/2000/svg" xmlns:xlink="http://www.w3.org/1999/xlink"  version="1.2" baseProfile="tiny">
<title>_o</title>
<desc>Generated with Qt</desc>
<defs>
</defs>
<g fill="none" stroke="black" stroke-width="1" fill-rule="evenodd" stroke-linecap="square" stroke-linejoin="bevel" >

<g fill="none" stroke="#000000" stroke-opacity="1" stroke-width="1" stroke-linecap="square" stroke-linejoin="bevel" transform="matrix(1,0,0,1,0,0)"
font-family="MS Shell Dlg 2" font-size="8.25" font-weight="400" font-style="normal" 
>
</g>

<g fill="#000000" fill-opacity="1" stroke="none" transform="matrix(1,0,0,1,0,0)"
font-family="MS Shell Dlg 2" font-size="8.25" font-weight="400" font-style="normal" 
>
<path vector-effect="none" fill-rule="nonzero" d="M277,700 L325,700 L521,41 L473,41 L277,700 M403,41 L590,41 C597,41 601,29 601,18 C601,9 599,1 593,1 L403,1 C396,1 393,11 393,21 C393,31 396,41 403,41 M343,212 L519,280 L531,254 L356,186 L343,212 M325,700 L129,41 L81,41 L277,700 L325,700 M199,41 C206,41 209,31 209,21 C209,11 206,1 199,1 L9,1 C3,1 1,9 1,18 C1,29 5,41 12,41 L199,41 M67,212 L243,280 L255,254 L80,186 L67,212"/>
</g>

<g fill="none" stroke="#000000" stroke-opacity="1" stroke-width="1" stroke-linecap="square" stroke-linejoin="bevel" transform="matrix(1,0,0,1,0,0)"
font-family="MS Shell Dlg 2" font-size="8.25" font-weight="400" font-style="normal" 
>
</g>
</g>
</svg>
