<?xml version="1.0" encoding="UTF-8" standalone="no"?>
<svg width="423.333mm" height="247.65mm"
 viewBox="0 0 1200 702"
 xmlns="http://www.w3.org/2000/svg" xmlns:xlink="http://www.w3.org/1999/xlink"  version="1.2" baseProfile="tiny">
<title>_t</title>
<desc>Generated with Qt</desc>
<defs>
</defs>
<g fill="none" stroke="black" stroke-width="1" fill-rule="evenodd" stroke-linecap="square" stroke-linejoin="bevel" >

<g fill="none" stroke="#000000" stroke-opacity="1" stroke-width="1" stroke-linecap="square" stroke-linejoin="bevel" transform="matrix(1,0,0,1,0,0)"
font-family="MS Shell Dlg 2" font-size="8.25" font-weight="400" font-style="normal" 
>
</g>

<g fill="#000000" fill-opacity="1" stroke="none" transform="matrix(1,0,0,1,0,0)"
font-family="MS Shell Dlg 2" font-size="8.25" font-weight="400" font-style="normal" 
>
<path vector-effect="none" fill-rule="nonzero" d="M576,41 L1072,701 L1120,701 L624,41 L576,41 M576,41 L751,701 L799,701 L624,41 L576,41 M624,41 L576,41 L80,701 L128,701 L624,41 M624,41 L576,41 L422,701 L469,701 L624,41 M404,440 L393,466 L568,526 L579,501 L404,440 M176,444 L165,470 L340,530 L351,505 L176,444 M621,440 L610,466 L785,526 L795,501 L621,440 M865,440 L854,466 L1029,526 L1040,501 L865,440"/>
</g>

<g fill="#000000" fill-opacity="1" stroke="none" transform="matrix(1,0,0,1,0,0)"
font-family="MS Shell Dlg 2" font-size="8.25" font-weight="400" font-style="normal" 
>
<path vector-effect="none" fill-rule="nonzero" d="M694,41 C700,41 704,31 704,21 C704,11 700,1 694,1 L505,1 C499,1 497,9 497,18 C497,29 500,41 507,41 L694,41"/>
</g>

<g fill="none" stroke="#000000" stroke-opacity="1" stroke-width="1" stroke-linecap="square" stroke-linejoin="bevel" transform="matrix(1,0,0,1,0,0)"
font-family="MS Shell Dlg 2" font-size="8.25" font-weight="400" font-style="normal" 
>
</g>
</g>
</svg>
