<?xml version="1.0" encoding="UTF-8" standalone="no"?>
<svg width="529.519mm" height="248.003mm"
 viewBox="0 0 1501 703"
 xmlns="http://www.w3.org/2000/svg" xmlns:xlink="http://www.w3.org/1999/xlink"  version="1.2" baseProfile="tiny">
<title>_u</title>
<desc>Generated with Qt</desc>
<defs>
</defs>
<g fill="none" stroke="black" stroke-width="1" fill-rule="evenodd" stroke-linecap="square" stroke-linejoin="bevel" >

<g fill="none" stroke="#000000" stroke-opacity="1" stroke-width="1" stroke-linecap="square" stroke-linejoin="bevel" transform="matrix(1,0,0,1,0,0)"
font-family="MS Shell Dlg 2" font-size="8.25" font-weight="400" font-style="normal" 
>
</g>

<g fill="#000000" fill-opacity="1" stroke="none" transform="matrix(1,0,0,1,0,0)"
font-family="MS Shell Dlg 2" font-size="8.25" font-weight="400" font-style="normal" 
>
<path vector-effect="none" fill-rule="nonzero" d="M703,42 L1,701 L69,701 L771,42 L703,42 M710,42 L1103,702 L1165,702 L778,42 L710,42 M898,441 L887,467 L1062,527 L1072,502 L898,441 M1142,441 L1131,467 L1306,527 L1317,502 L1142,441 M719,42 L719,701 L771,701 L771,42 L719,42 M831,600 L652,546 L642,571 L825,626 L831,600 M778,42 L710,42 L323,702 L385,702 L778,42 M174,461 L348,522 L360,493 L187,435 L174,461 M381,441 L370,467 L545,527 L556,502 L381,441 M837,41 C843,41 847,31 847,21 C847,11 843,1 837,1 L648,1 C642,1 640,9 640,18 C640,29 643,41 650,41 L837,41 M710,42 L1419,701 L1487,701 L778,42 L710,42 M710,42 L1419,701 L1487,701 L778,42 L710,42"/>
</g>

<g fill="none" stroke="#000000" stroke-opacity="1" stroke-width="1" stroke-linecap="square" stroke-linejoin="bevel" transform="matrix(1,0,0,1,0,0)"
font-family="MS Shell Dlg 2" font-size="8.25" font-weight="400" font-style="normal" 
>
</g>
</g>
</svg>
