<?xml version="1.0" encoding="UTF-8" standalone="no"?>
<svg width="159.456mm" height="177.094mm"
 viewBox="0 0 452 502"
 xmlns="http://www.w3.org/2000/svg" xmlns:xlink="http://www.w3.org/1999/xlink"  version="1.2" baseProfile="tiny">
<title>a</title>
<desc>Generated with Qt</desc>
<defs>
</defs>
<g fill="none" stroke="black" stroke-width="1" fill-rule="evenodd" stroke-linecap="square" stroke-linejoin="bevel" >

<g fill="none" stroke="#000000" stroke-opacity="1" stroke-width="1" stroke-linecap="square" stroke-linejoin="bevel" transform="matrix(1,0,0,1,0,0)"
font-family="MS Shell Dlg 2" font-size="8.25" font-weight="400" font-style="normal" 
>
</g>

<g fill="#000000" fill-opacity="1" stroke="none" transform="matrix(1,0,0,1,0,0)"
font-family="MS Shell Dlg 2" font-size="8.25" font-weight="400" font-style="normal" 
>
<path vector-effect="none" fill-rule="nonzero" d="M1,501 L451,501 L451,484 L1,484 L1,501 M1,380 L451,380 L451,363 L1,363 L1,380 M1,260 L451,260 L451,242 L1,242 L1,260 M1,139 L451,139 L451,122 L1,122 L1,139 M1,18 L451,18 L451,1 L1,1 L1,18 M126,311 C126,340 171,363 226,363 C280,363 325,340 325,311 C325,282 280,259 226,259 C171,259 126,282 126,311 "/>
</g>

<g fill="none" stroke="#000000" stroke-opacity="1" stroke-width="1" stroke-linecap="square" stroke-linejoin="bevel" transform="matrix(1,0,0,1,0,0)"
font-family="MS Shell Dlg 2" font-size="8.25" font-weight="400" font-style="normal" 
>
</g>
</g>
</svg>
