<?xml version="1.0" encoding="UTF-8" standalone="no"?>
<svg width="159.456mm" height="311.856mm"
 viewBox="0 0 452 884"
 xmlns="http://www.w3.org/2000/svg" xmlns:xlink="http://www.w3.org/1999/xlink"  version="1.2" baseProfile="tiny">
<title>eight</title>
<desc>Generated with Qt</desc>
<defs>
</defs>
<g fill="none" stroke="black" stroke-width="1" fill-rule="evenodd" stroke-linecap="square" stroke-linejoin="bevel" >

<g fill="none" stroke="#000000" stroke-opacity="1" stroke-width="1" stroke-linecap="square" stroke-linejoin="bevel" transform="matrix(1,0,0,1,0,0)"
font-family="MS Shell Dlg 2" font-size="8.25" font-weight="400" font-style="normal" 
>
</g>

<g fill="#000000" fill-opacity="1" stroke="none" transform="matrix(1,0,0,1,0,0)"
font-family="MS Shell Dlg 2" font-size="8.25" font-weight="400" font-style="normal" 
>
<path vector-effect="none" fill-rule="nonzero" d="M145,268 C142,247 142,225 142,206 C142,101 175,28 202,28 C236,28 250,60 250,98 C250,144 220,192 145,268 M151,469 C152,469 167,465 170,462 L152,337 L137,357 L151,469 M210,774 C210,739 204,709 197,679 L184,684 C191,722 198,763 198,802 C193,855 166,873 142,873 C118,873 88,857 88,841 C88,832 93,828 99,828 C101,828 103,828 105,829 C107,830 110,831 114,831 C127,831 142,813 142,787 C142,760 126,741 104,741 C83,741 69,756 69,794 C69,854 103,883 139,883 C193,883 210,835 210,774 M194,660 L175,491 L157,496 L180,663 L155,665 C83,665 52,576 52,516 C52,447 75,420 116,377 C184,307 262,207 262,106 C262,51 239,1 204,1 C186,1 167,15 147,46 C127,86 116,122 116,177 C116,206 119,240 127,283 C72,351 27,428 27,527 C27,613 66,692 146,692 C209,692 275,642 275,556 C275,493 240,458 194,458 C157,458 92,488 92,542 C92,575 118,611 145,636 L146,632 C122,608 111,584 111,561 C111,527 137,499 181,491 C215,495 249,519 249,571 C249,607 233,653 194,660 M1,702 L451,702 L451,685 L1,685 L1,702 M1,581 L451,581 L451,564 L1,564 L1,581 M1,461 L451,461 L451,443 L1,443 L1,461 M1,340 L451,340 L451,323 L1,323 L1,340 M1,219 L451,219 L451,202 L1,202 L1,219"/>
</g>

<g fill="none" stroke="#000000" stroke-opacity="1" stroke-width="1" stroke-linecap="square" stroke-linejoin="bevel" transform="matrix(1,0,0,1,0,0)"
font-family="MS Shell Dlg 2" font-size="8.25" font-weight="400" font-style="normal" 
>
</g>
</g>
</svg>
