<?xml version="1.0" encoding="UTF-8" standalone="no"?>
<svg width="159.456mm" height="192.264mm"
 viewBox="0 0 452 545"
 xmlns="http://www.w3.org/2000/svg" xmlns:xlink="http://www.w3.org/1999/xlink"  version="1.2" baseProfile="tiny">
<title>l</title>
<desc>Generated with Qt</desc>
<defs>
</defs>
<g fill="none" stroke="black" stroke-width="1" fill-rule="evenodd" stroke-linecap="square" stroke-linejoin="bevel" >

<g fill="none" stroke="#000000" stroke-opacity="1" stroke-width="1" stroke-linecap="square" stroke-linejoin="bevel" transform="matrix(1,0,0,1,0,0)"
font-family="MS Shell Dlg 2" font-size="8.25" font-weight="400" font-style="normal" 
>
</g>

<g fill="#000000" fill-opacity="1" stroke="none" transform="matrix(1,0,0,1,0,0)"
font-family="MS Shell Dlg 2" font-size="8.25" font-weight="400" font-style="normal" 
>
<path vector-effect="none" fill-rule="nonzero" d="M1,544 L451,544 L451,527 L1,527 L1,544 M1,423 L451,423 L451,406 L1,406 L1,423 M1,303 L451,303 L451,285 L1,285 L1,303 M1,182 L451,182 L451,165 L1,165 L1,182 M1,61 L451,61 L451,44 L1,44 L1,61 M126,53 C126,82 171,105 226,105 C280,105 325,82 325,53 C325,24 280,1 226,1 C171,1 126,24 126,53 "/>
</g>

<g fill="none" stroke="#000000" stroke-opacity="1" stroke-width="1" stroke-linecap="square" stroke-linejoin="bevel" transform="matrix(1,0,0,1,0,0)"
font-family="MS Shell Dlg 2" font-size="8.25" font-weight="400" font-style="normal" 
>
</g>
</g>
</svg>
