<?xml version="1.0" encoding="UTF-8" standalone="no"?>
<svg width="159.456mm" height="214.136mm"
 viewBox="0 0 452 607"
 xmlns="http://www.w3.org/2000/svg" xmlns:xlink="http://www.w3.org/1999/xlink"  version="1.2" baseProfile="tiny">
<title>m</title>
<desc>Generated with Qt</desc>
<defs>
</defs>
<g fill="none" stroke="black" stroke-width="1" fill-rule="evenodd" stroke-linecap="square" stroke-linejoin="bevel" >

<g fill="none" stroke="#000000" stroke-opacity="1" stroke-width="1" stroke-linecap="square" stroke-linejoin="bevel" transform="matrix(1,0,0,1,0,0)"
font-family="MS Shell Dlg 2" font-size="8.25" font-weight="400" font-style="normal" 
>
</g>

<g fill="#000000" fill-opacity="1" stroke="none" transform="matrix(1,0,0,1,0,0)"
font-family="MS Shell Dlg 2" font-size="8.25" font-weight="400" font-style="normal" 
>
<path vector-effect="none" fill-rule="nonzero" d="M1,606 L451,606 L451,589 L1,589 L1,606 M1,485 L451,485 L451,468 L1,468 L1,485 M1,365 L451,365 L451,347 L1,347 L1,365 M1,244 L451,244 L451,227 L1,227 L1,244 M1,123 L451,123 L451,106 L1,106 L1,123 M126,53 C126,82 171,105 226,105 C280,105 325,82 325,53 C325,24 280,1 226,1 C171,1 126,24 126,53 "/>
</g>

<g fill="none" stroke="#000000" stroke-opacity="1" stroke-width="1" stroke-linecap="square" stroke-linejoin="bevel" transform="matrix(1,0,0,1,0,0)"
font-family="MS Shell Dlg 2" font-size="8.25" font-weight="400" font-style="normal" 
>
</g>
</g>
</svg>
