<svg xmlns="http://www.w3.org/2000/svg" viewBox="0 0 1200 1200"><defs><style>.cls-1{fill:#f7f6f5;}</style></defs><g id="Background"><rect class="cls-1" width="1200" height="1200"/></g><g id="Graphic_Elements" data-name="Graphic Elements"><path d="M196.92,976.36c-2.21-1.86-4-4.2-4-5.18a23.06,23.06,0,0,0-1.84-6.1c-2.61-6.09-5.56-18.26-7.38-30.44-.85-5.76-2.05-13.7-2.66-17.66s-2-13.37-3-20.92c-4-28.85-4.92-34.9-6.7-43.15q-2.41-11.19-4.08-24.19c-1.75-13.64-4.5-31.29-5.71-36.61-1.39-6.11-4.12-20.23-5.95-30.73a53.25,53.25,0,0,0-1.51-6.54c-.89-2.45-1.15-4.42-3.51-26.15C149.51,719,147.48,704.27,146,696s-3.64-22.1-4.9-30.73-2.84-17.16-3.52-19a53.93,53.93,0,0,1-1.79-11.12c-.3-4.31-1.49-13.43-2.63-20.27s-2.57-16.83-3.18-22.23c-1.74-15.44-4.7-35.9-6.17-42.76-.75-3.45-2-12.45-2.85-20s-2-15.79-2.69-18.31c-1-3.84-2.32-11.78-4.45-26.8-.21-1.44-.77-6.15-1.26-10.46-1.26-11.15-4.59-31.77-6.12-37.94-1.16-4.68-3.55-19.73-6.28-39.69a27,27,0,0,1,7.23-21.44c2.45-2.51,14.75-3.09,24.7-1.15,6.51,1.25,8.46.67,8.46-2.55,0-1.39.85-2.51,1.89-2.51,1.22,0,2.18-2.05,2.76-5.89.49-3.23,1.36-5.88,1.95-5.88s1-1.74,1-3.88c-.13-4.39,2.22-7.9,5.28-7.9,1.6,0,1.71-.34.49-1.56-3.37-3.37-1.14-9.57,4.53-12.59,1.87-1,2.6-2.34,2.17-4-.92-3.52,1.8-8,4.86-8,1.71,0,2.56-.89,2.56-2.65a3.8,3.8,0,0,1,2-3.41,3,3,0,0,0,2-2.37c0-3.61,8.58-6.62,12.18-4.27,5.21,3.42,6.44.45,3.41-8.18s-2.94-7.27-.48-9.74c1.85-1.85,2.52-1.8,7.14.56A26.85,26.85,0,0,0,204.29,292a53.7,53.7,0,0,1,10.18,1.31c20.59,5,77.56.81,113.77-8.42,4.31-1.1,11.67-2.91,16.34-4s10.56-2.59,13.08-3.28c4.57-1.24,33.76-4.83,41.19-5.06,37.82-1.16,74.73,3.34,105.92,12.91,27.34,8.4,49.1,17.94,56.65,24.84,2.37,2.16,4.72,3.93,5.21,3.94s2.08,1.76,3.52,3.9c4.56,6.81,8.75,5.19,31-11.92,4.07-3.15,9.34-6.9,11.69-8.33,4.63-2.83,7.46-4.61,13.58-8.53,10.31-6.63,58.17-27.43,63.1-27.43.72,0,4.76-1.54,9-3.41,16-7.12,75.58-22.87,110.33-29.19,63.3-11.51,108.26-11.83,168-1.21,7.91,1.4,17,3,20.16,3.47,9.12,1.45,10.13,3.94,16.38,40.8,1,6.11,2.54,14.35,3.34,18.3,3.17,15.64,4.17,21.87,4.62,28.77.49,7.33,1.47,13.61,5.93,37.92,1.39,7.55,3.14,18.15,3.89,23.54,4,29,5.34,37.78,8.41,56.88,1.85,11.51,4.25,26.22,5.34,32.69s2.33,15.6,2.75,20.27,1.32,9.17,2,10,1.73,6.41,2.4,12.42c1.75,15.64,4.76,36.8,5.66,39.77.43,1.39,1.41,7.83,2.18,14.31s2,15,2.62,19,2.18,13.66,3.34,21.57,2.48,15.27,2.91,16.35a24.49,24.49,0,0,1,1,5.88c.12,2.16,1.51,11,3.1,19.62s3.74,21,4.79,27.46,2.44,14.71,3.09,18.3,1.88,11.84,2.72,18.31c4.14,31.65,5.28,39.83,6.57,47.07.77,4.32,1.64,10.2,1.94,13.08,1,9.55,1.25,10.89,2.24,11.88,1.77,1.77,1,10.77-1.08,12.87-2.44,2.44-2.59,2.46-6,.64-3.1-1.66-4.68-.67-2.73,1.71s7.71,36.22,8.85,51.39c.27,3.62,2,14.69,3.83,24.61,4.09,22.19,4.25,20-1.58,22.87-4.37,2.2-9.5,2.56-47.4,3.34-23.37.48-50.73,1.14-60.8,1.47-35.15,1.13-105.16,1.89-177.58,1.91l-72.94,0-2.88,3.1a85.65,85.65,0,0,0-6.15,7.87C713.11,938.76,605,950.87,586.5,933.29c-2.52-2.39-5.46-4.52-6.54-4.72-2.92-.54-18.07,1.44-21.79,2.86A88.83,88.83,0,0,1,544.89,934c-5.53.71-16.52,2.18-24.43,3.26s-18.7,2.54-24,3.24-10.58,1.55-11.77,1.91-9.23,1.54-17.86,2.62-33.93,4.68-56.23,8-46.12,6.82-53,7.79-16.31,2.38-21.06,3.16c-10.71,1.75-64.57,8.45-90.09,11.2-10.42,1.13-22.89,2.63-27.71,3.33-13.8,2-17.39,1.67-21.88-2.11Zm22.53-31.08c.59-1.54-3.21-28.31-6.9-48.57-.66-3.6-2.38-13-3.83-20.92s-2.92-16.45-3.25-19-2.42-16.06-4.64-30.08-4.28-27.56-4.58-30.07-4.77-29.88-9.94-60.81-10.15-61.22-11.07-67.34c-3.23-21.38-6.05-38.88-12.51-77.8-5.91-35.64-10.73-67.14-14.32-93.5-2.28-16.72-9.19-62.86-11.16-74.53a149.48,149.48,0,0,1-1.51-24.52c.4-14.46-1.5-18.71-3.49-7.78a22.19,22.19,0,0,1-1.18,4.49c-.31.55,0,5.71.67,11.46,1.3,11,2,17.52,2.92,26.15.29,2.88,1.77,11.71,3.27,19.62,2.89,15.15,4,22.46,7.29,49,1.12,9,2.9,20.76,3.95,26.16,2.34,12,8,47.75,9.09,57.53.45,4,2.29,14.55,4.1,23.54s4.08,21.35,5.07,27.46,2.71,15.82,3.84,21.57,2.62,15.17,3.33,20.93c1.39,11.41,4.07,28.76,10.2,66,5.9,35.87,7.94,49.81,10,68.65,1,9.35,2.49,19.35,3.23,22.23s2.21,9.94,3.29,15.69C203.61,863,205,870.28,207.93,885c1.14,5.79,1.69,11.54,1.22,12.76a4.35,4.35,0,0,0,.55,3.92c1.54,1.86,5.43,29.08,5.43,38,0,6.87,2.56,10.16,4.32,5.57Zm7.37-5.75c-2.64-15.86-5.38-39.33-4.87-41.6.74-3.27,2.37,3,6.22,23.91s6,21.75,36.65,14.12a135.6,135.6,0,0,1,17.65-2.63,109,109,0,0,0,17-2.7,196.37,196.37,0,0,1,20.68-3.74c7.78-1,15-2.59,16-3.45s3.54-1.23,5.75-.78,4.18.27,4.56-.35,2.61-1.45,4.95-1.85c11.17-1.9,16.27-3.13,18.89-4.55,1.57-.85,6.57-1.55,11.12-1.55,8.77,0,19.65-1.63,48.14-7.19,61.33-12,125.9-11.84,162.33.31l13.91,4.63,3-2.75c2.53-2.36,2.7-3.06,1.19-4.87-2.87-3.47-12.65-9.74-15.22-9.76-3.09,0-6.48-2.19-5.29-3.38,1.71-1.71,13.92,3.24,21.15,8.58,8.26,6.1,11,6.47,16,2.16s-2.06-11.26-11.49-11.26a2.27,2.27,0,0,1-2.46-2c0-3.35,8-2.34,14.61,1.82l6,3.79,4.37-3.73c5.35-4.57,5.67-4.26-10-9.8-12.72-4.48-17.61-7.11-13.26-7.11,1.2,0,5.29,1.11,9.09,2.47,16.87,6,23.26,7.58,23.26,5.65,0-3.5-23.31-12-48.38-17.69C590,862.4,580,860.41,576,859.84s-6.91-1.61-6.54-2.35c1-2.08,4.5-1.65,27.42,3.47,30.15,6.73,39.47,9.65,49.36,15.49,6.86,4,12.38-.42,6.05-4.89-8.3-5.87-37-14.31-56.68-16.69-3.95-.48-12-1.68-17.91-2.68-29.79-5-105.44-2.66-167.77,5.25l-25.5,3.25c-40.45,5.19-68.46,4.61-99.64-2.07-13.31-2.85-12.28.67-22-75-1.15-9-2.67-19.29-3.37-22.88-1.34-6.83-8.39-53.53-10.46-69.25-.66-5-1.47-10-1.8-11.12s-1.22-6.72-2-12.47-2.2-15.76-3.23-22.23-3.08-20-4.56-30.08-3.9-26.25-5.38-36l-4.65-30.73c-5.88-39-13.65-87.65-16.91-105.91-1-5.76-3.37-20.17-5.21-32s-4.18-26.57-5.19-32.69c-2.56-15.37-4.28-26.87-6.67-44.46-2.64-19.43-2.82-20.07-6-22.08-3.73-2.33-4.9-.11-3.61,6.83.56,3,2,12.8,3.15,21.79,2.14,16.37,3.61,26.46,8.48,58.19,8.27,53.94,11.24,72.68,14.29,90.22,1.38,7.91,2.89,17.33,3.36,20.92s2.62,17.4,4.78,30.68c4,24.42,4.77,38,1.58,26.86-.82-2.88-2.74-14.06-4.26-24.84s-3.62-24.91-4.68-31.39-3.7-23-5.88-36.61-4.48-27.49-5.11-30.73c-1.1-5.54-2.43-13.78-7.29-45.11-1.12-7.19-2.87-18.37-3.88-24.85s-2.77-18.54-3.9-26.8c-4.53-33.14-5-35.5-6.28-34.18-.87.87-.79,4.51.24,10.88.85,5.26,2.07,14,2.7,19.37s2,15.4,3.09,22.23c4.12,26.27,5.26,39,3.67,40.94s-.53,10.94,4.33,38.17c13.4,75,13.81,77.81,11.32,77.81-1.42,0-1.31.56-8.57-43.81-3.3-20.14-6.87-41.32-7.95-47.07s-2.19-13.41-2.47-17a52.8,52.8,0,0,0-1.21-8.5c-.38-1.08-2.26-12-4.17-24.19-9-57.47-8.69-55.9-11-53.53-.74.75-.52,6,.58,13.65,1,6.83,2.72,18.89,3.85,26.8,3.94,27.57,6.12,41.89,7.35,48.38.69,3.6,1.83,11.14,2.55,16.77,2.5,19.65.54,19.34-2.58-.42-.85-5.39-2.34-13.92-3.31-19-2.61-13.56-5.59-31-7.82-45.77-4.63-30.63-4.93-32-6.88-32-2.15,0-2,1.52,1.54,25.5,4.37,29.16,8.92,61.85,10.55,75.84.92,7.91,2.1,15.41,2.61,16.67s.35,2.29-.49,2.29c-1.86,0-1.69.83-10.58-53.61-1.46-9-3.55-21.64-4.63-28.12s-2.32-14.23-2.77-17.24-1.61-5.79-2.61-6.17c-2.2-.85-2.29,1.61-.42,11.14,2,10.49,4.71,34.53,4,36.55s-3.62-8.7-4.84-18.08c-.49-3.79-1.48-7.25-2.21-7.7s-1,.8-.57,3.61c.41,2.44,1.62,9.73,2.7,16.2s2.54,15,3.28,19c2.7,14.56,6.78,38.83,8,47.73s4.76,30.38,8.55,52.3c1,5.76,2.69,16.35,3.76,23.54s2.33,14.92,2.78,17.17c1,4.76-1.58,7.42-2.7,2.82-.72-2.95-4.05-21.85-7.9-44.84a164,164,0,0,0-3.39-16.13c-.78-2.4-2.18-10.35-3.11-17.65s-2.9-20.35-4.38-29c-3-17.37-10.43-62.61-11.57-70.29-.4-2.69-1.28-4.9-1.95-4.9s-.91,1-.53,2.29c.59,2,3.05,20.32,5.46,40.86,1,8.59-2.59.74-3.89-8.51-1.72-12.17-3.88-21.42-4.86-20.81s-.93,2.14,4.33,33.24c2.13,12.59,4.38,26.73,5,31.42A87.85,87.85,0,0,0,152.92,462,121.67,121.67,0,0,1,155,475c.75,6.12,2.18,15.53,3.18,20.93s1.37,10.28.82,10.85-1.39-1.77-1.86-5.23-1.77-10.69-2.89-16.08-2.52-13.34-3.14-17.65a102.55,102.55,0,0,0-2.54-12.42,38.31,38.31,0,0,1-1.51-8.5,37.57,37.57,0,0,0-1.92-9.16l-1.82-5.23.65,5.23c.35,2.87,1.17,8.76,1.81,13.07l3.78,25.5c1.44,9.71,3.21,20.3,3.95,23.54s2.32,12.65,3.52,20.92,2.68,17.39,3.29,20.27,2.33,13.47,3.82,23.54,3.25,21.54,3.93,25.5c1.9,11.08,6.27,39.22,9.25,59.49,1.48,10.07,3.52,23.31,4.52,29.42s3.34,20.83,5.19,32.69,3.88,23.64,4.52,26.16a110.19,110.19,0,0,1,2,11.77c.44,4,2.23,15.72,4,26.15s4.08,25.14,5.22,32.69,2.92,18.44,3.95,24.19c2.22,12.45,5.45,32.3,11.71,71.92,1,6.47,2.24,15.3,2.71,19.61,1.29,12,4.17,21.58,6.48,21.58.17,0-.15-2.8-.72-6.21Zm6.82-5.23c-.66-1.25-2.19-10.52-3.41-20.59s-3.11-22.91-4.22-28.53-1.71-12.09-1.35-14.38c.53-3.44-8.62-80.42-11.68-98.31-.79-4.59-.66-5,1.09-3.59,1.19,1,2.32,4.93,2.81,9.8.45,4.5,1.74,14,2.85,21.25S223,820.67,224.42,830s3.2,22,3.88,28.11,1.79,14.65,2.47,19c3.4,21.56,5.3,34.7,6,41.51l.78,7.52h11a126.24,126.24,0,0,0,20.5-1.9l20.62-4.1a128.59,128.59,0,0,0,15.69-4l4.59-1.8-4.58.72c-2.51.39-8.69,1.41-13.73,2.26-14.56,2.48-47,1.82-48.77-1-.91-1.47-2-7.85-4.84-28.78-3.08-22.64-5.65-39.44-8.25-54-1.32-7.38-2.11-13.7-1.76-14.05,1.55-1.56,2.81-.36,2.81,2.7,0,1.84,1.16,9.34,2.57,16.68s4.12,23.92,6,36.87c5.2,35.86,5.25,36.11,7.12,37.27,4.16,2.57,29.05,3,43.05.72,18.66-3,21.82-3.69,40-8.5,8.63-2.29,21.58-5.3,28.77-6.68s15.72-3.06,19-3.74c6.7-1.39,9.3-.1,7,3.52-.89,1.41-3.82,2.54-7.82,3-7,.84-35.53,8.29-52.17,13.62-5.75,1.84-15.29,4.3-21.18,5.45-8.92,1.76-10.79,2.56-11.12,4.76s-2.51,3.14-12.81,5.55c-28.12,6.56-43.36,7.73-45.57,3.51Zm25.29-3c7.91-.87,15.44-2.12,16.73-2.78a43.23,43.23,0,0,1,7.85-2.4c4.88-1.06,4.57-1.13-2.74-.59-4.53.34-9.43,1.25-10.89,2s-9.67,1.53-18.23,1.65c-10.94.16-15.58.68-15.59,1.76,0,1.63,3.24,2.73,6.52,2.22,1.08-.17,8.44-1,16.35-1.89Zm56.53-17.81a7.46,7.46,0,0,0-3.92,0c-.89.36.15.63,2.31.6s2.88-.32,1.61-.65Zm-50.65-7.06c-20.4-1.16-18.92.12-20.71-17.87-.85-8.44-2.12-19.17-2.84-23.85s-1.92-13.79-2.68-20.27c-1.33-11.37-2.4-20.26-5.29-43.8-.75-6.11-1.61-12.59-1.91-14.39s-1.09-8-1.75-13.73-1.54-12.81-2-15.69c-1.61-11-6.23-44.89-7.39-54.26-.67-5.4-1.45-11-1.73-12.43-.71-3.64-2.33-15.77-2.77-20.72-.2-2.27-1.33-10.89-2.52-19.16-3.28-22.87-6.15-50-5.37-50.74,1.34-1.34,2.15.83,3.38,9.08,5.15,34.52,7.77,54,7.77,57.69,0,2.4.66,5,1.47,5.84s3.44,13.43,5.84,28,5.3,31.29,6.43,37,2.65,14.88,3.35,20.27a107.93,107.93,0,0,0,2,11.77c.39,1.08,1.56,8.44,2.59,16.35,2.41,18.53,5.34,36.52,7,43.15,1.82,7.2,1.81,13.37,0,11.53-.78-.77-2.24-7.7-3.25-15.38s-2.07-14.38-2.37-14.87a56.33,56.33,0,0,1-1.42-8.7,65.86,65.86,0,0,0-1.32-8.5,42.64,42.64,0,0,1-1.22-6.58c-.44-3.24-2-12.36-3.46-20.27s-3.92-22-5.46-31.3c-5.49-33-3.64-13.29,4.12,43.9,4.33,31.91,8.13,60.66,8.45,63.9,2.18,22.1,6.28,53.43,7.3,55.83,1.78,4.18,7.65,5,37,5,23.53,0,30.75.81,22.88,2.57-4.87,1.09-29.49,1.41-44.13.57ZM225.18,710.71c-.33-1.26-.6-.23-.6,2.28s.27,3.55.6,2.29A10.67,10.67,0,0,0,225.18,710.71Zm37.67,186.72c-10.44-2.78-13.73-5.95-13.73-13.23,0-4.31,2.13-2.79,3.77,2.7,1.47,4.9,1.88,5.23,6.48,5.23,2.71,0,5.57.66,6.37,1.45,1,1,10.39,1.49,27.73,1.56,18.45.08,25.87.53,24.9,1.5-1.66,1.66-49.69,2.35-55.52.79Zm40.54-6.91c-50.08-1.72-48.89-1.26-51.2-19.62-1.55-12.35-.32-18.52,1.87-9.33.67,2.78,2,8.58,3,12.87,2,8.7,2.37,8.89,18.18,10.5,4,.4,8.37,1,9.82,1.3s13.37.69,26.48.85,23.85.7,23.85,1.2c0,2.73-5.7,3.13-32,2.23Zm2.61-6.41-19-2.62c-6.11-.84-13.42-1.7-16.24-1.92-8.28-.63-9.36-2.74-13.12-25.72-1.5-9.13-.52-15.9,1.23-8.52,1.14,4.8,3.28,15.66,4.15,21,.46,2.89,1.52,4.9,2.58,4.9s1.79.59,1.79,1.31,1.21,1.31,2.7,1.31a12.84,12.84,0,0,1,5.13,1.3c3.58,1.91,37.17,6.54,47.52,6.54,6.57,0,8.8.44,8.4,1.64-.66,2-13.71,2.38-25.18.8Zm-1.3-7.78c-13.14-1.61-33.53-5.19-36.77-6.44-2.11-.82-2.93-2.56-3.48-7.4-.4-3.47-1.66-11.32-2.8-17.43s-4.45-27.56-7.35-47.66-5.94-37.33-6.75-38.3c-1-1.17-1-2.2-.15-3.07,3.27-3.27,6,9.27,12.24,56.58.64,4.81,1.49,10.1,1.9,11.77s1.59,8.32,2.64,14.8c3.6,22.13,4.13,24.24,6.64,26.14a10.38,10.38,0,0,0,7.4,1.91c.18,0,2.79.82,5.8,1.88,9,3.16,40.19,6.44,52.5,5.51,8.48-.64,10.78-.46,10.35.83-.67,2-28.23,2.59-42.17.88Zm0-7.16c-5.76-1-13.11-2.57-16.35-3.39a73.74,73.74,0,0,0-8.51-1.71c-3.69-.31-8-2.92-6.81-4.12.55-.56,3-.28,5.49.61,19.73,7.14,77.94,9.12,96.62,3.29,1.65-.51,2.25-.2,1.87,1-1.58,4.74-53.1,7.85-72.31,4.36Zm76-4.12c-1.08-1.07,27.07-5.44,35.69-5.54,9.68-.11,5.57.93-14.89,3.76-23,3.19-19.68,2.91-20.8,1.78ZM243.92,728.59c-.07-2.64-3-17-4.22-20.31-1.72-4.94-.26-12.93,1.72-9.4s4.82,26.82,3.6,28.75c-.6.93-1.09,1.36-1.1,1ZM644,895.11c-1.41-2.21-1.45-2.2-.74.07a24.24,24.24,0,0,1,.91,4.58c.13,2,.21,2,.74-.07a6.69,6.69,0,0,0-.91-4.58Zm8.53-1.59c-1-7.13-3.3-9.07-3.3-2.78,0,4.41,2.33,11.27,3.44,10.15.41-.41.34-3.73-.16-7.37Zm11.79-4.86c-1.25-10-2.2-8-1.13,2.27.49,4.61,1.14,7.61,1.45,6.66s.17-5-.32-8.93Zm16.79,6.42c-1.23-5.14-1.81-5.31-1.81-.55,0,2.29.6,4.15,1.33,4.15s1-1.47.47-3.6Zm33.25-1.43a30.09,30.09,0,0,1,9.27-6c3.16-1.22,10.8-4.84,17-8s11.85-5.82,12.64-5.82,3.86-1.18,6.84-2.61c5.86-2.84,8.15-3.26,8.15-1.49,0,.62-3.24,2.15-7.19,3.39s-7.19,2.8-7.19,3.45c0,1.73.85,1.6,20.56-3.24,24.8-6.09,59.06-12.42,71.62-13.23,66.72-4.32,93.93-4.34,130.11-.08L999,862.7a556,556,0,0,1,54.92,9.16c16.86,3.81,16.34,3.76,16.34,1.64,0-4.07-41.67-17.16-71.92-22.61-10.77-1.94-13.93-3.39-13.71-6.29.27-3.36,3.63-3.49,19.51-.77,8,1.38,10.49,1.42,10.89.2.84-2.51,6.79-1.88,22.73,2.41,30.74,8.26,31.19,8.35,31.19,6.76,0-.56-3.59-2.09-8-3.39-9.32-2.77-9.1-5.68.26-3.52,14.72,3.39,10.78-.42-5.69-5.51-35.55-11-42.26-12.71-66.7-17.16-13.24-2.41-14.89-5.28-2.36-4.11,9,.85,49,10.26,60.9,14.35,20.25,6.94,22.6,7.16,21.84,2-.7-4.79-3.08-5.93-17.82-8.55-5.69-1-12.46-2.37-15-3s-9.68-1.85-15.8-2.68-16.7-2.4-23.54-3.49-18.6-2.29-26.15-2.63c-16-.73-17.21-1-16.18-3.69.91-2.37,7.79-2.65,18.72-.75,4,.69,12,1.93,17.73,2.75,46.38,6.63,58.81,8.75,69,11.78,9.34,2.78,12.22,2.17,10.53-2.24-1.36-3.52-36.44-13-59.82-16.12-5.7-.77-10.65-1.68-11-2-3.88-3.87,21.31-.77,47.63,5.86,23.25,5.86,25.14,6.15,22.94,3.51-1.57-1.9-12.52-5.22-33.18-10.08-12.79-3-17.6-5.55-7.19-3.8,20.79,3.49,29.1,5.35,43.81,9.83,4.3,1.31,3.72-1.79-.66-3.49-6.41-2.49-30.92-8.07-51.32-11.7-8.46-1.5-18.74-2.2-35.71-2.42-11.63-.15-10.37-2.66,1.46-2.92,8-.18,8.25-.26,2.87-1-12.33-1.65-68.84,2.17-96.77,6.53-28.37,4.43-34,5.42-40.53,7.06-4,1-12.2,3-18.31,4.52-19.43,4.7-44.52,11.54-52.13,14.21-4,1.42-13.25,4.45-20.44,6.73-19.12,6.07-46.29,15.59-52.31,18.33-22,10-28.84,13.48-37,18.84-9.73,6.35-10.52,7.37-7.65,9.75,1.29,1.07,3.31.35,8.17-2.91,7.47-5,18.3-10.72,31.3-16.49,5-2.23,11.73-5.24,14.87-6.67s5.91-2.43,6.14-2.19c1.35,1.35-3.1,4-17.09,10.14-15.84,7-38.48,19.45-38.54,21.26-.1,3.06,15.2-3.23,23.23-9.54,1.79-1.41,4.19-2.54,5.36-2.53s.11,1.23-2.47,2.8C688.63,873.46,680,879.51,679,881c-3.42,4.89,1.82,4.32,10-1.09,7-4.62,34.8-19.08,36.87-19.16a33.26,33.26,0,0,0,6.42-2.57,33.17,33.17,0,0,1,6.47-2.57,117.36,117.36,0,0,0,11.77-3.88c22.85-8.34,34.28-10.81,33.64-7.28-.21,1.16-6.6,3.2-22.92,7.31a51.45,51.45,0,0,0-9.15,3.39,146.6,146.6,0,0,1-15.23,5.77c-24.05,7.87-52.31,21.84-52.31,25.86,0,1.63,9.41,4.49,10.3,3.14,1.35-2.06,18.8-12.12,21-12.12,1.13,0-2.51,2.92-8.09,6.49-10.77,6.92-12.89,10.51-6.19,10.51,2.15,0,3.92.59,3.92,1.31,0,2.67,5.49,1.18,8.9-2.41Zm4.17-9.34c0-.71,4.7-3.66,10.46-6.55,6.7-3.37,10.46-4.66,10.46-3.57,0,.93-4.42,3.88-9.83,6.55-10.8,5.35-11.09,5.44-11.09,3.57Zm369.61-3c-.36-.89-.63.15-.6,2.31s.32,2.88.65,1.61a7.46,7.46,0,0,0,0-3.92ZM751.89,878c-.81-.81-5.88,1.22-5.88,2.35,0,.61,1.42.43,3.17-.4s3-1.7,2.71-1.95Zm334.18-13.14c-.77-1.43-1.4-5.43-1.41-8.9,0-6.42-1.69-10.91-3.42-9.18-.85.85,2.41,18.1,4.38,23.15.65,1.65.85,1.61,1.3-.25A8.08,8.08,0,0,0,1086.07,864.84Zm-430.84-13c-1.15-7-4.47-27.06-7.4-44.68s-6.74-41.15-8.5-52.29-4.08-24.67-5.18-30.07-3.1-16.61-4.46-24.87c-4.74-28.86-34.24-211.34-37.41-231.45-1.75-11.15-3.53-21.15-3.94-22.23s-1.55-7.85-2.53-15-3-19.84-4.4-28.11-3.86-24.46-5.38-36c-5.54-42-4.77-39.06-12.09-45.8-13.08-12.05-39.58-25-65.08-31.83-5.39-1.44-13-3.51-17-4.61-35.64-9.87-93.67-8.83-136.65,2.45-54.77,14.38-105.94,17.47-148.42,9-4.82-1-4.79-2.36-.57,24.6,1.84,11.75,4.17,27.25,5.17,34.44s2.41,16.61,3.11,20.93,2.48,15.49,3.95,24.84c6.15,39.2,11.89,75,13.11,81.73.72,3.95,2.81,17.49,4.65,30.07s3.63,23.77,4,24.86,1.46,7.85,2.51,15,2.55,16.59,3.32,20.91c2.22,12.38,6.54,41.75,8.56,58.19,1,8.27,2.17,16.37,2.57,18s2.22,13.4,4.05,26.16c4.92,34.25,6.83,46.79,9,59.15,1.08,6.11,2.57,16.7,3.31,23.54s1.91,15.36,2.59,19,1.85,11.24,2.57,17,2.5,18.68,3.95,28.72,2.64,19.91,2.64,21.91c0,8,9.35,11.19,41.65,14.15,24.7,2.27,45.29.76,115.26-8.44,16.16-2.12,35.4-3.81,68.65-6,48.19-3.18,125.12,7.3,149.63,20.39,7.45,4,7.61,3.53,4.77-13.62ZM1069,865.34a2,2,0,0,0-1.92-2,23,23,0,0,1-6.21-1.82c-4.09-1.74-16.62-5.38-30.16-8.75-3.43-.86-6.62-1.18-7.08-.72s.15.83,1.36.83a11.91,11.91,0,0,1,4.47,1.14c4.41,2.21,27.71,9.32,30.66,9.37a11,11,0,0,1,5.53,2c3.15,2.39,3.35,2.38,3.35,0Zm-394.65-5.4c11.17-7.16,25.15-13.83,44.86-21.4,7.91-3,15.56-6,17-6.67,2.41-1,23.14-8.14,41.84-14.3,13.36-4.41,49.28-14.28,57.54-15.82A82.73,82.73,0,0,0,846,799.23a90.05,90.05,0,0,1,11.77-2.56c5-.83,11-2.07,13.2-2.75,24-7.29,114.85-12.06,149.59-7.84,6.12.74,17,1.71,24.17,2.17s17.78,1.65,23.54,2.66c20.44,3.6,20.17,3.79,17.1-11.61-2.2-11-5-28.51-7.92-48.65-2.47-17.29-7.36-48-11.76-73.88-1.77-10.43-4.1-25.73-5.17-34-3-22.92-4.64-34.1-6-40.23a54.69,54.69,0,0,1-1.26-9.92A81.21,81.21,0,0,0,1052,561.2c-2-11.15-6.32-38.75-7.78-50.24-.73-5.75-2.18-15.76-3.22-22.23s-2.81-18-3.93-25.5-2.64-16.67-3.38-20.26c-1.34-6.52-5.31-31.87-10.46-66.69-4.52-30.64-5.38-36.24-7.22-46.42-4.62-25.9-7.19-40.72-8.59-49.69-.85-5.4-2.78-16.28-4.31-24.19l-2.77-14.39-10.54-4.2c-23.45-9.36-96.43-14.74-134-9.88-15,2-29.56,4-34,4.82-1.8.33-10.33,1.85-19,3.36-31.07,5.47-108.45,27.22-120.55,33.89-3.11,1.71-10,4.49-18.06,7.32-18.9,6.61-66.89,36.55-82.82,51.67-3.66,3.48-3.56,7.77.89,35.94,1.59,10.07,3.81,24.78,4.94,32.69s3.41,22.91,5.08,33.34,3.39,22.49,3.84,26.81a119.4,119.4,0,0,0,2.74,15c1.06,3.95,9.54,54.85,18.84,113.11S636.19,700.24,638,711s3.94,23.73,4.73,28.76c1.27,8.07,3.28,19,7.72,41.85.7,3.59,2.5,14.77,4,24.84s3.27,21.25,4,24.85,1.89,12.13,2.66,19c2.09,18.6.78,17.65,13.27,9.65Zm403.8-59.18c0-4.73-10.06-7.06-45.76-10.59-34.33-3.39-30.16-1.54,14.73,6.54a106.54,106.54,0,0,1,10.47,2.45,123.56,123.56,0,0,0,18.27,3.9A2,2,0,0,0,1078.14,800.76Zm-935.31-379c-.3-2-.55-.36-.55,3.6s.25,5.57.55,3.59A28.83,28.83,0,0,0,142.83,421.72Zm43.11-26.16c-.33-1.25-.58.08-.57,2.95s.28,3.9.6,2.28A14.28,14.28,0,0,0,185.94,395.56ZM182,370.71c-.33-1.25-.58.08-.57,3s.28,3.9.59,2.27A14.08,14.08,0,0,0,182,370.71Z"/></g></svg>